<?xml version="1.0"?>
<!-- Generated by SVGo -->
<svg width="155.502mm" height="117.402mm"
     viewBox="0.000 0.000 155.502 117.402"
     xmlns="http://www.w3.org/2000/svg" 
     xmlns:xlink="http://www.w3.org/1999/xlink">
<polygon points="147.502,5.001 147.737,5.010 147.971,5.037 148.202,5.083 148.429,5.147 148.650,5.229 148.863,5.327 149.069,5.443 149.265,5.573 149.450,5.719 149.623,5.879 149.783,6.052 149.929,6.237 150.059,6.433 150.175,6.639 150.273,6.852 150.355,7.073 150.419,7.300 150.465,7.531 150.492,7.765 150.502,8.001 150.502,109.402 150.492,109.637 150.465,109.871 150.419,110.102 150.355,110.329 150.273,110.550 150.175,110.763 150.059,110.969 149.929,111.165 149.783,111.350 149.623,111.523 149.450,111.683 149.265,111.829 149.069,111.959 148.863,112.075 148.650,112.173 148.429,112.255 148.202,112.319 147.971,112.365 147.737,112.392 147.501,112.402 8.001,112.402 7.765,112.392 7.531,112.365 7.300,112.319 7.073,112.255 6.852,112.173 6.639,112.075 6.433,111.959 6.237,111.829 6.052,111.683 5.879,111.523 5.719,111.350 5.573,111.165 5.443,110.969 5.327,110.763 5.229,110.550 5.147,110.329 5.083,110.102 5.037,109.871 5.010,109.637 5.000,109.401 5.001,8.001 5.010,7.765 5.037,7.531 5.083,7.300 5.147,7.073 5.229,6.852 5.327,6.639 5.443,6.433 5.573,6.237 5.719,6.052 5.879,5.879 6.052,5.719 6.237,5.573 6.433,5.443 6.639,5.327 6.852,5.229 7.073,5.147 7.300,5.083 7.531,5.037 7.765,5.010 8.001,5.000" style="fill:none;stroke-width:0.050000mm;stroke:blue"/>
<polygon points="68.219,108.355 68.137,108.364 68.056,108.381 67.977,108.403 67.900,108.431 67.825,108.466 67.753,108.506 67.684,108.552 67.620,108.603 67.559,108.659 67.503,108.720 67.452,108.784 67.406,108.853 67.366,108.925 67.331,109.000 67.303,109.077 67.281,109.156 67.264,109.237 67.255,109.319 67.251,109.402 67.255,109.484 67.264,109.566 67.281,109.647 67.303,109.726 67.331,109.803 67.366,109.878 67.406,109.950 67.452,110.019 67.503,110.083 67.559,110.144 67.620,110.200 67.684,110.251 67.753,110.297 67.825,110.337 67.900,110.372 67.977,110.400 68.056,110.422 68.137,110.439 68.219,110.448 68.302,110.452 68.384,110.448 68.466,110.439 68.547,110.422 68.626,110.400 68.703,110.372 68.778,110.337 68.850,110.297 68.919,110.251 68.983,110.200 69.044,110.144 69.100,110.083 69.151,110.019 69.197,109.950 69.237,109.878 69.272,109.803 69.300,109.726 69.322,109.647 69.339,109.566 69.348,109.484 69.352,109.402 69.348,109.319 69.339,109.237 69.322,109.156 69.300,109.077 69.272,109.000 69.237,108.925 69.197,108.853 69.151,108.784 69.100,108.720 69.044,108.659 68.983,108.603 68.919,108.552 68.850,108.506 68.778,108.466 68.703,108.431 68.626,108.403 68.547,108.381 68.466,108.364 68.384,108.355 68.302,108.352" style="fill:none;stroke-width:0.050000mm;stroke:blue"/>
<polygon points="7.918,108.355 7.836,108.364 7.755,108.381 7.676,108.403 7.599,108.431 7.524,108.466 7.452,108.506 7.383,108.552 7.319,108.603 7.258,108.659 7.202,108.720 7.151,108.784 7.105,108.853 7.065,108.925 7.030,109.000 7.002,109.077 6.980,109.156 6.963,109.237 6.954,109.319 6.950,109.402 6.954,109.484 6.963,109.566 6.980,109.647 7.002,109.726 7.030,109.803 7.065,109.878 7.105,109.950 7.151,110.019 7.202,110.083 7.258,110.144 7.319,110.200 7.383,110.251 7.452,110.297 7.524,110.337 7.599,110.372 7.676,110.400 7.755,110.422 7.836,110.439 7.918,110.448 8.001,110.452 8.083,110.448 8.165,110.439 8.246,110.422 8.325,110.400 8.402,110.372 8.477,110.337 8.549,110.297 8.618,110.251 8.682,110.200 8.743,110.144 8.799,110.083 8.850,110.019 8.896,109.950 8.936,109.878 8.971,109.803 8.999,109.726 9.021,109.647 9.038,109.566 9.047,109.484 9.051,109.402 9.047,109.319 9.038,109.237 9.021,109.156 8.999,109.077 8.971,109.000 8.936,108.925 8.896,108.853 8.850,108.784 8.799,108.720 8.743,108.659 8.682,108.603 8.618,108.552 8.549,108.506 8.477,108.466 8.402,108.431 8.325,108.403 8.246,108.381 8.165,108.364 8.083,108.355 8.001,108.352" style="fill:none;stroke-width:0.050000mm;stroke:blue"/>
<polygon points="147.419,108.355 147.337,108.364 147.256,108.381 147.177,108.403 147.100,108.431 147.025,108.466 146.953,108.506 146.884,108.552 146.820,108.603 146.759,108.659 146.703,108.720 146.652,108.784 146.606,108.853 146.566,108.925 146.531,109.000 146.503,109.077 146.481,109.156 146.464,109.237 146.455,109.319 146.452,109.402 146.455,109.484 146.464,109.566 146.481,109.647 146.503,109.726 146.531,109.803 146.566,109.878 146.606,109.950 146.652,110.019 146.703,110.083 146.759,110.144 146.820,110.200 146.884,110.251 146.953,110.297 147.025,110.337 147.100,110.372 147.177,110.400 147.256,110.422 147.337,110.439 147.419,110.448 147.502,110.452 147.584,110.448 147.666,110.439 147.747,110.422 147.826,110.400 147.903,110.372 147.978,110.337 148.050,110.297 148.119,110.251 148.183,110.200 148.244,110.144 148.300,110.083 148.351,110.019 148.397,109.950 148.437,109.878 148.472,109.803 148.500,109.726 148.522,109.647 148.539,109.566 148.548,109.484 148.552,109.402 148.548,109.319 148.539,109.237 148.522,109.156 148.500,109.077 148.472,109.000 148.437,108.925 148.397,108.853 148.351,108.784 148.300,108.720 148.244,108.659 148.183,108.603 148.119,108.552 148.050,108.506 147.978,108.466 147.903,108.431 147.826,108.403 147.747,108.381 147.666,108.364 147.584,108.355 147.502,108.352" style="fill:none;stroke-width:0.050000mm;stroke:blue"/>
<polygon points="7.918,57.654 7.836,57.664 7.755,57.680 7.676,57.702 7.599,57.731 7.524,57.765 7.452,57.806 7.383,57.852 7.319,57.903 7.258,57.959 7.202,58.019 7.151,58.084 7.105,58.152 7.065,58.224 7.030,58.299 7.002,58.377 6.980,58.456 6.963,58.537 6.954,58.619 6.950,58.701 6.954,58.783 6.963,58.865 6.980,58.946 7.002,59.025 7.030,59.103 7.065,59.178 7.105,59.250 7.151,59.318 7.202,59.383 7.258,59.443 7.319,59.499 7.383,59.550 7.452,59.596 7.524,59.637 7.599,59.671 7.676,59.700 7.755,59.722 7.836,59.738 7.918,59.748 8.001,59.751 8.083,59.748 8.165,59.738 8.246,59.722 8.325,59.700 8.402,59.671 8.477,59.637 8.549,59.596 8.618,59.550 8.682,59.499 8.743,59.443 8.799,59.383 8.850,59.318 8.896,59.250 8.936,59.178 8.971,59.103 8.999,59.025 9.021,58.946 9.038,58.865 9.047,58.783 9.051,58.701 9.047,58.619 9.038,58.537 9.021,58.456 8.999,58.377 8.971,58.299 8.936,58.224 8.896,58.152 8.850,58.084 8.799,58.019 8.743,57.959 8.682,57.903 8.618,57.852 8.549,57.806 8.477,57.765 8.402,57.731 8.325,57.702 8.246,57.680 8.165,57.664 8.083,57.654 8.001,57.651" style="fill:none;stroke-width:0.050000mm;stroke:blue"/>
<polygon points="147.419,57.654 147.337,57.664 147.256,57.680 147.177,57.702 147.100,57.731 147.025,57.765 146.953,57.806 146.884,57.852 146.820,57.903 146.759,57.959 146.703,58.019 146.652,58.084 146.606,58.152 146.566,58.224 146.531,58.299 146.503,58.377 146.481,58.456 146.464,58.537 146.455,58.619 146.452,58.701 146.455,58.783 146.464,58.865 146.481,58.946 146.503,59.025 146.531,59.103 146.566,59.178 146.606,59.250 146.652,59.318 146.703,59.383 146.759,59.443 146.820,59.499 146.884,59.550 146.953,59.596 147.025,59.637 147.100,59.671 147.177,59.700 147.256,59.722 147.337,59.738 147.419,59.748 147.502,59.751 147.584,59.748 147.666,59.738 147.747,59.722 147.826,59.700 147.903,59.671 147.978,59.637 148.050,59.596 148.119,59.550 148.183,59.499 148.244,59.443 148.300,59.383 148.351,59.318 148.397,59.250 148.437,59.178 148.472,59.103 148.500,59.025 148.522,58.946 148.539,58.865 148.548,58.783 148.552,58.701 148.548,58.619 148.539,58.537 148.522,58.456 148.500,58.377 148.472,58.299 148.437,58.224 148.397,58.152 148.351,58.084 148.300,58.019 148.244,57.959 148.183,57.903 148.119,57.852 148.050,57.806 147.978,57.765 147.903,57.731 147.826,57.702 147.747,57.680 147.666,57.664 147.584,57.654 147.502,57.651" style="fill:none;stroke-width:0.050000mm;stroke:blue"/>
<polygon points="68.068,6.954 67.986,6.963 67.905,6.980 67.826,7.002 67.749,7.030 67.674,7.065 67.602,7.105 67.533,7.151 67.469,7.202 67.408,7.258 67.352,7.319 67.301,7.383 67.255,7.452 67.215,7.524 67.180,7.599 67.152,7.676 67.130,7.755 67.113,7.836 67.104,7.918 67.101,8.001 67.104,8.083 67.113,8.165 67.130,8.246 67.152,8.325 67.180,8.402 67.215,8.477 67.255,8.549 67.301,8.618 67.352,8.682 67.408,8.743 67.469,8.799 67.533,8.850 67.602,8.896 67.674,8.936 67.749,8.971 67.826,8.999 67.905,9.021 67.986,9.038 68.068,9.047 68.151,9.051 68.233,9.047 68.315,9.038 68.396,9.021 68.475,8.999 68.552,8.971 68.627,8.936 68.699,8.896 68.768,8.850 68.832,8.799 68.893,8.743 68.949,8.682 69.000,8.618 69.046,8.549 69.086,8.477 69.121,8.402 69.149,8.325 69.171,8.246 69.188,8.165 69.197,8.083 69.201,8.001 69.197,7.918 69.188,7.836 69.171,7.755 69.149,7.676 69.121,7.599 69.086,7.524 69.046,7.452 69.000,7.383 68.949,7.319 68.893,7.258 68.832,7.202 68.768,7.151 68.699,7.105 68.627,7.065 68.552,7.030 68.475,7.002 68.396,6.980 68.315,6.963 68.233,6.954 68.151,6.951" style="fill:none;stroke-width:0.050000mm;stroke:blue"/>
<polygon points="7.918,6.954 7.836,6.963 7.755,6.980 7.676,7.002 7.599,7.030 7.524,7.065 7.452,7.105 7.383,7.151 7.319,7.202 7.258,7.258 7.202,7.319 7.151,7.383 7.105,7.452 7.065,7.524 7.030,7.599 7.002,7.676 6.980,7.755 6.963,7.836 6.954,7.918 6.950,8.001 6.954,8.083 6.963,8.165 6.980,8.246 7.002,8.325 7.030,8.402 7.065,8.477 7.105,8.549 7.151,8.618 7.202,8.682 7.258,8.743 7.319,8.799 7.383,8.850 7.452,8.896 7.524,8.936 7.599,8.971 7.676,8.999 7.755,9.021 7.836,9.038 7.918,9.047 8.001,9.051 8.083,9.047 8.165,9.038 8.246,9.021 8.325,8.999 8.402,8.971 8.477,8.936 8.549,8.896 8.618,8.850 8.682,8.799 8.743,8.743 8.799,8.682 8.850,8.618 8.896,8.549 8.936,8.477 8.971,8.402 8.999,8.325 9.021,8.246 9.038,8.165 9.047,8.083 9.051,8.001 9.047,7.918 9.038,7.836 9.021,7.755 8.999,7.676 8.971,7.599 8.936,7.524 8.896,7.452 8.850,7.383 8.799,7.319 8.743,7.258 8.682,7.202 8.618,7.151 8.549,7.105 8.477,7.065 8.402,7.030 8.325,7.002 8.246,6.980 8.165,6.963 8.083,6.954 8.001,6.951" style="fill:none;stroke-width:0.050000mm;stroke:blue"/>
<polygon points="147.419,6.954 147.337,6.963 147.256,6.980 147.177,7.002 147.100,7.030 147.025,7.065 146.953,7.105 146.884,7.151 146.820,7.202 146.759,7.258 146.703,7.319 146.652,7.383 146.606,7.452 146.566,7.524 146.531,7.599 146.503,7.676 146.481,7.755 146.464,7.836 146.455,7.918 146.452,8.001 146.455,8.083 146.464,8.165 146.481,8.246 146.503,8.325 146.531,8.402 146.566,8.477 146.606,8.549 146.652,8.618 146.703,8.682 146.759,8.743 146.820,8.799 146.884,8.850 146.953,8.896 147.025,8.936 147.100,8.971 147.177,8.999 147.256,9.021 147.337,9.038 147.419,9.047 147.502,9.051 147.584,9.047 147.666,9.038 147.747,9.021 147.826,8.999 147.903,8.971 147.978,8.936 148.050,8.896 148.119,8.850 148.183,8.799 148.244,8.743 148.300,8.682 148.351,8.618 148.397,8.549 148.437,8.477 148.472,8.402 148.500,8.325 148.522,8.246 148.539,8.165 148.548,8.083 148.552,8.001 148.548,7.918 148.539,7.836 148.522,7.755 148.500,7.676 148.472,7.599 148.437,7.524 148.397,7.452 148.351,7.383 148.300,7.319 148.244,7.258 148.183,7.202 148.119,7.151 148.050,7.105 147.978,7.065 147.903,7.030 147.826,7.002 147.747,6.980 147.666,6.963 147.584,6.954 147.502,6.951" style="fill:none;stroke-width:0.050000mm;stroke:blue"/>
</svg>
