  0
SECTION
  2
HEADER
  9
$ACADVER
  1
AC1014
  9
$HANDSEED
  5
FFFF
  9
$MEASUREMENT
 70
     1
  0
ENDSEC
  0
SECTION
  2
TABLES
  0
TABLE
  2
VPORT
  5
8
330
0
100
AcDbSymbolTable
 70
     4
  0
VPORT
  5
2E
330
8
100
AcDbSymbolTableRecord
100
AcDbViewportTableRecord
  2
*ACTIVE
 70
     0
 10
0.0
 20
0.0
 11
1.0
 21
1.0
 12
210.0
 22
148.5
 13
0.0
 23
0.0
 14
10.0
 24
10.0
 15
10.0
 25
10.0
 16
0.0
 26
0.0
 36
1.0
 17
0.0
 27
0.0
 37
0.0
 40
341.0
 41
1.24
 42
50.0
 43
0.0
 44
0.0
 50
0.0
 51
0.0
 71
     0
 72
   100
 73
     1
 74
     3
 75
     0
 76
     0
 77
     0
 78
     0
  0
ENDTAB
  0
TABLE
  2
LTYPE
  5
5
330
0
100
AcDbSymbolTable
 70
     1
  0
LTYPE
  5
14
330
5
100
AcDbSymbolTableRecord
100
AcDbLinetypeTableRecord
  2
BYBLOCK
 70
     0
  3

 72
    65
 73
     0
 40
0.0
  0
LTYPE
  5
15
330
5
100
AcDbSymbolTableRecord
100
AcDbLinetypeTableRecord
  2
BYLAYER
 70
     0
  3

 72
    65
 73
     0
 40
0.0
  0
LTYPE
  5
16
330
5
100
AcDbSymbolTableRecord
100
AcDbLinetypeTableRecord
  2
CONTINUOUS
 70
     0
  3
Solid line
 72
    65
 73
     0
 40
0.0
  0
ENDTAB
  0
TABLE
  2
LAYER
  5
2
100
AcDbSymbolTable
 70
2
  0
LAYER
  5
50
100
AcDbSymbolTableRecord
100
AcDbLayerTableRecord
  2
0
 70
0
  6
CONTINUOUS
  0
LAYER
  5
51
100
AcDbSymbolTableRecord
100
AcDbLayerTableRecord
  2
viterbi-middle
 70
0
  6
CONTINUOUS
  0
ENDTAB
  0
TABLE
  2
STYLE
  5
3
330
0
100
AcDbSymbolTable
 70
     1
  0
STYLE
  5
11
330
3
100
AcDbSymbolTableRecord
100
AcDbTextStyleTableRecord
  2
STANDARD
 70
     0
 40
0.0
 41
1.0
 50
0.0
 71
     0
 42
2.5
  3
txt
  4

  0
ENDTAB
  0
TABLE
  2
VIEW
  5
6
330
0
100
AcDbSymbolTable
 70
     0
  0
ENDTAB
  0
TABLE
  2
UCS
  5
7
330
0
100
AcDbSymbolTable
 70
     0
  0
ENDTAB
  0
TABLE
  2
APPID
  5
9
330
0
100
AcDbSymbolTable
 70
     2
  0
APPID
  5
12
330
9
100
AcDbSymbolTableRecord
100
AcDbRegAppTableRecord
  2
ACAD
 70
     0
  0
ENDTAB
  0
TABLE
  2
DIMSTYLE
  5
A
330
0
100
AcDbSymbolTable
 70
     1
  0
DIMSTYLE
105
27
330
A
100
AcDbSymbolTableRecord
100
AcDbDimStyleTableRecord
  2
ISO-25
 70
     0
  3

  4

  5

  6

  7

 40
1.0
 41
2.5
 42
0.625
 43
3.75
 44
1.25
 45
0.0
 46
0.0
 47
0.0
 48
0.0
140
2.5
141
2.5
142
0.0
143
0.03937007874016
144
1.0
145
0.0
146
1.0
147
0.625
 71
     0
 72
     0
 73
     0
 74
     0
 75
     0
 76
     0
 77
     1
 78
     8
170
     0
171
     3
172
     1
173
     0
174
     0
175
     0
176
     0
177
     0
178
     0
270
     2
271
     2
272
     2
273
     2
274
     3
340
11
275
     0
280
     0
281
     0
282
     0
283
     0
284
     8
285
     0
286
     0
287
     3
288
     0
  0
ENDTAB
  0
TABLE
  2
BLOCK_RECORD
  5
1
330
0
100
AcDbSymbolTable
 70
     1
  0
BLOCK_RECORD
  5
1F
330
1
100
AcDbSymbolTableRecord
100
AcDbBlockTableRecord
  2
*MODEL_SPACE
  0
BLOCK_RECORD
  5
1B
330
1
100
AcDbSymbolTableRecord
100
AcDbBlockTableRecord
  2
*PAPER_SPACE
  0
ENDTAB
  0
ENDSEC
  0
SECTION
  2
BLOCKS
  0
BLOCK
  5
20
330
1F
100
AcDbEntity
  8
0
100
AcDbBlockBegin
  2
*MODEL_SPACE
 70
     0
 10
0.0
 20
0.0
 30
0.0
  3
*MODEL_SPACE
  1

  0
ENDBLK
  5
21
330
1F
100
AcDbEntity
  8
0
100
AcDbBlockEnd
  0
BLOCK
  5
1C
330
1B
100
AcDbEntity
 67
     1
  8
0
100
AcDbBlockBegin
  2
*PAPER_SPACE
  1

  0
ENDBLK
  5
1D
330
1B
100
AcDbEntity
 67
     1
  8
0
100
AcDbBlockEnd
  0
ENDSEC
  0
SECTION
  2
ENTITIES
  0
LWPOLYLINE
  5
100
100
AcDbEntity
  8
viterbi-middle
 62
5
100
AcDbPolyline
 90
20
 70
1
 10
422.138189
 20
308.244985
 30
0.0
 10
421.472189
 20
306.940985
 30
0.0
 10
420.437189
 20
305.905985
 30
0.0
 10
419.133190
 20
305.239985
 30
0.0
 10
417.690190
 20
305.010985
 30
0.0
 10
416.245190
 20
305.239985
 30
0.0
 10
414.941190
 20
305.905985
 30
0.0
 10
413.906190
 20
306.940985
 30
0.0
 10
413.240190
 20
308.244985
 30
0.0
 10
413.013190
 20
309.690985
 30
0.0
 10
413.240190
 20
311.133985
 30
0.0
 10
413.906190
 20
312.436985
 30
0.0
 10
414.941190
 20
313.471985
 30
0.0
 10
416.245190
 20
314.137985
 30
0.0
 10
417.690190
 20
314.364985
 30
0.0
 10
419.133190
 20
314.137985
 30
0.0
 10
420.437189
 20
313.471985
 30
0.0
 10
421.472189
 20
312.436985
 30
0.0
 10
422.138189
 20
311.133985
 30
0.0
 10
422.368189
 20
309.687985
 30
0.0
  0
LWPOLYLINE
  5
101
100
AcDbEntity
  8
viterbi-middle
 62
5
100
AcDbPolyline
 90
20
 70
1
 10
422.138189
 20
164.737988
 30
0.0
 10
421.472189
 20
163.433988
 30
0.0
 10
420.437189
 20
162.399988
 30
0.0
 10
419.133190
 20
161.735988
 30
0.0
 10
417.690190
 20
161.506988
 30
0.0
 10
416.245190
 20
161.735988
 30
0.0
 10
414.941190
 20
162.399988
 30
0.0
 10
413.906190
 20
163.433988
 30
0.0
 10
413.240190
 20
164.737988
 30
0.0
 10
413.013190
 20
166.183988
 30
0.0
 10
413.240190
 20
167.629988
 30
0.0
 10
413.906190
 20
168.933988
 30
0.0
 10
414.941190
 20
169.967988
 30
0.0
 10
416.245190
 20
170.630988
 30
0.0
 10
417.690190
 20
170.860988
 30
0.0
 10
419.133190
 20
170.630988
 30
0.0
 10
420.437189
 20
169.967988
 30
0.0
 10
421.472189
 20
168.933988
 30
0.0
 10
422.138189
 20
167.629988
 30
0.0
 10
422.368189
 20
166.183988
 30
0.0
  0
LWPOLYLINE
  5
102
100
AcDbEntity
  8
viterbi-middle
 62
5
100
AcDbPolyline
 90
20
 70
1
 10
422.138189
 20
21.233992
 30
0.0
 10
421.472189
 20
19.929992
 30
0.0
 10
420.437189
 20
18.895992
 30
0.0
 10
419.133190
 20
18.229992
 30
0.0
 10
417.690190
 20
17.999992
 30
0.0
 10
416.245190
 20
18.229992
 30
0.0
 10
414.941190
 20
18.895992
 30
0.0
 10
413.906190
 20
19.929992
 30
0.0
 10
413.240190
 20
21.233992
 30
0.0
 10
413.013190
 20
22.679992
 30
0.0
 10
413.240190
 20
24.122992
 30
0.0
 10
413.906190
 20
25.426992
 30
0.0
 10
414.941190
 20
26.460992
 30
0.0
 10
416.245190
 20
27.127992
 30
0.0
 10
417.690190
 20
27.356992
 30
0.0
 10
419.133190
 20
27.127992
 30
0.0
 10
420.437189
 20
26.460992
 30
0.0
 10
421.472189
 20
25.426992
 30
0.0
 10
422.138189
 20
24.122992
 30
0.0
 10
422.368189
 20
22.679992
 30
0.0
  0
LWPOLYLINE
  5
103
100
AcDbEntity
  8
viterbi-middle
 62
5
100
AcDbPolyline
 90
20
 70
1
 10
197.631195
 20
21.233992
 30
0.0
 10
196.968195
 20
19.929992
 30
0.0
 10
195.933195
 20
18.895992
 30
0.0
 10
194.629195
 20
18.229992
 30
0.0
 10
193.184195
 20
17.999992
 30
0.0
 10
191.738195
 20
18.229992
 30
0.0
 10
190.434195
 20
18.895992
 30
0.0
 10
189.399195
 20
19.929992
 30
0.0
 10
188.736195
 20
21.233992
 30
0.0
 10
188.507195
 20
22.679992
 30
0.0
 10
188.736195
 20
24.122992
 30
0.0
 10
189.399195
 20
25.426992
 30
0.0
 10
190.434195
 20
26.460992
 30
0.0
 10
191.738195
 20
27.127992
 30
0.0
 10
193.184195
 20
27.356992
 30
0.0
 10
194.629195
 20
27.127992
 30
0.0
 10
195.933195
 20
26.460992
 30
0.0
 10
196.968195
 20
25.426992
 30
0.0
 10
197.631195
 20
24.122992
 30
0.0
 10
197.861195
 20
22.679992
 30
0.0
  0
LWPOLYLINE
  5
104
100
AcDbEntity
  8
viterbi-middle
 62
5
100
AcDbPolyline
 90
20
 70
1
 10
27.127199
 20
308.244985
 30
0.0
 10
26.461199
 20
306.940985
 30
0.0
 10
25.427199
 20
305.905985
 30
0.0
 10
24.123199
 20
305.239985
 30
0.0
 10
22.677199
 20
305.010985
 30
0.0
 10
21.234199
 20
305.239985
 30
0.0
 10
19.930200
 20
305.905985
 30
0.0
 10
18.896200
 20
306.940985
 30
0.0
 10
18.229200
 20
308.244985
 30
0.0
 10
18.000200
 20
309.690985
 30
0.0
 10
18.229200
 20
311.133985
 30
0.0
 10
18.896200
 20
312.436985
 30
0.0
 10
19.930200
 20
313.471985
 30
0.0
 10
21.234199
 20
314.137985
 30
0.0
 10
22.680199
 20
314.364985
 30
0.0
 10
24.123199
 20
314.137985
 30
0.0
 10
25.427199
 20
313.471985
 30
0.0
 10
26.461199
 20
312.436985
 30
0.0
 10
27.127199
 20
311.133985
 30
0.0
 10
27.357199
 20
309.687985
 30
0.0
  0
LWPOLYLINE
  5
105
100
AcDbEntity
  8
viterbi-middle
 62
5
100
AcDbPolyline
 90
20
 70
1
 10
27.127199
 20
164.737988
 30
0.0
 10
26.461199
 20
163.433988
 30
0.0
 10
25.427199
 20
162.399988
 30
0.0
 10
24.123199
 20
161.735988
 30
0.0
 10
22.677199
 20
161.506988
 30
0.0
 10
21.234199
 20
161.735988
 30
0.0
 10
19.930200
 20
162.399988
 30
0.0
 10
18.896200
 20
163.433988
 30
0.0
 10
18.229200
 20
164.737988
 30
0.0
 10
18.000200
 20
166.183988
 30
0.0
 10
18.229200
 20
167.629988
 30
0.0
 10
18.896200
 20
168.933988
 30
0.0
 10
19.930200
 20
169.967988
 30
0.0
 10
21.234199
 20
170.630988
 30
0.0
 10
22.680199
 20
170.860988
 30
0.0
 10
24.123199
 20
170.630988
 30
0.0
 10
25.427199
 20
169.967988
 30
0.0
 10
26.461199
 20
168.933988
 30
0.0
 10
27.127199
 20
167.629988
 30
0.0
 10
27.357199
 20
166.183988
 30
0.0
  0
LWPOLYLINE
  5
106
100
AcDbEntity
  8
viterbi-middle
 62
5
100
AcDbPolyline
 90
20
 70
1
 10
27.127199
 20
21.233992
 30
0.0
 10
26.461199
 20
19.929992
 30
0.0
 10
25.427199
 20
18.895992
 30
0.0
 10
24.123199
 20
18.229992
 30
0.0
 10
22.677199
 20
17.999992
 30
0.0
 10
21.234199
 20
18.229992
 30
0.0
 10
19.930200
 20
18.895992
 30
0.0
 10
18.896200
 20
19.929992
 30
0.0
 10
18.229200
 20
21.233992
 30
0.0
 10
18.000200
 20
22.679992
 30
0.0
 10
18.229200
 20
24.122992
 30
0.0
 10
18.896200
 20
25.426992
 30
0.0
 10
19.930200
 20
26.460992
 30
0.0
 10
21.234199
 20
27.127992
 30
0.0
 10
22.680199
 20
27.356992
 30
0.0
 10
24.123199
 20
27.127992
 30
0.0
 10
25.427199
 20
26.460992
 30
0.0
 10
26.461199
 20
25.426992
 30
0.0
 10
27.127199
 20
24.122992
 30
0.0
 10
27.357199
 20
22.679992
 30
0.0
  0
SPLINE
  5
107
100
AcDbEntity
  8
viterbi-middle
 62
5
100
AcDbSpline
 70
8
 71
3
 72
8
 73
4
 74
0
 40
0
 40
0
 40
0
 40
0
 40
1
 40
1
 40
1
 40
1
 10
307.350192
 20
318.191985
 30
0.0
 10
305.781192
 20
318.191985
 30
0.0
 10
304.509192
 20
316.919985
 30
0.0
 10
304.509192
 20
315.349985
 30
0.0
  0
LWPOLYLINE
  5
108
100
AcDbEntity
  8
viterbi-middle
 62
5
100
AcDbPolyline
 90
21
 70
0
 10
426.166189
 20
310.356985
 30
0.0
 10
426.090189
 20
311.019985
 30
0.0
 10
425.959189
 20
311.674985
 30
0.0
 10
425.778189
 20
312.317985
 30
0.0
 10
425.545189
 20
312.944985
 30
0.0
 10
425.267189
 20
313.548985
 30
0.0
 10
424.939189
 20
314.132985
 30
0.0
 10
424.570189
 20
314.687985
 30
0.0
 10
424.156189
 20
315.212985
 30
0.0
 10
423.703189
 20
315.702985
 30
0.0
 10
423.212189
 20
316.155985
 30
0.0
 10
422.688189
 20
316.569985
 30
0.0
 10
422.132189
 20
316.938985
 30
0.0
 10
421.548189
 20
317.267985
 30
0.0
 10
420.945189
 20
317.544985
 30
0.0
 10
420.318189
 20
317.777985
 30
0.0
 10
419.675190
 20
317.958985
 30
0.0
 10
419.020190
 20
318.089985
 30
0.0
 10
418.357190
 20
318.165985
 30
0.0
 10
417.690190
 20
318.191985
 30
0.0
 10
307.350192
 20
318.191985
 30
0.0
  0
SPLINE
  5
109
100
AcDbEntity
  8
viterbi-middle
 62
5
100
AcDbSpline
 70
8
 71
3
 72
8
 73
4
 74
0
 40
0
 40
0
 40
0
 40
0
 40
1
 40
1
 40
1
 40
1
 10
304.509192
 20
304.018985
 30
0.0
 10
304.509192
 20
302.452985
 30
0.0
 10
305.778192
 20
301.183985
 30
0.0
 10
307.344192
 20
301.183985
 30
0.0
  0
LWPOLYLINE
  5
10a
100
AcDbEntity
  8
viterbi-middle
 62
5
100
AcDbPolyline
 90
2
 70
0
 10
304.509192
 20
315.349985
 30
0.0
 10
304.509192
 20
304.018985
 30
0.0
  0
SPLINE
  5
10b
100
AcDbEntity
  8
viterbi-middle
 62
5
100
AcDbSpline
 70
8
 71
3
 72
8
 73
4
 74
0
 40
0
 40
0
 40
0
 40
0
 40
1
 40
1
 40
1
 40
1
 10
59.623199
 20
301.183985
 30
0.0
 10
61.183198
 20
301.183985
 30
0.0
 10
62.448198
 20
302.448985
 30
0.0
 10
62.448198
 20
304.008985
 30
0.0
  0
LWPOLYLINE
  5
10c
100
AcDbEntity
  8
viterbi-middle
 62
5
100
AcDbPolyline
 90
6
 70
0
 10
307.344192
 20
301.183985
 30
0.0
 10
409.187190
 20
301.183985
 30
0.0
 10
409.187190
 20
31.183992
 30
0.0
 10
31.184199
 20
31.183992
 30
0.0
 10
31.184199
 20
301.183985
 30
0.0
 10
59.623199
 20
301.183985
 30
0.0
  0
SPLINE
  5
10d
100
AcDbEntity
  8
viterbi-middle
 62
5
100
AcDbSpline
 70
8
 71
3
 72
8
 73
4
 74
0
 40
0
 40
0
 40
0
 40
0
 40
1
 40
1
 40
1
 40
1
 10
62.448198
 20
315.369985
 30
0.0
 10
62.448198
 20
316.929985
 30
0.0
 10
61.184198
 20
318.194985
 30
0.0
 10
59.623199
 20
318.194985
 30
0.0
  0
LWPOLYLINE
  5
10e
100
AcDbEntity
  8
viterbi-middle
 62
5
100
AcDbPolyline
 90
2
 70
0
 10
62.448198
 20
304.008985
 30
0.0
 10
62.448198
 20
315.369985
 30
0.0
  0
LWPOLYLINE
  5
10f
100
AcDbEntity
  8
viterbi-middle
 62
5
100
AcDbPolyline
 90
66
 70
0
 10
59.623199
 20
318.194985
 30
0.0
 10
22.680199
 20
318.194985
 30
0.0
 10
22.011199
 20
318.165985
 30
0.0
 10
21.347199
 20
318.089985
 30
0.0
 10
20.693199
 20
317.958985
 30
0.0
 10
20.049199
 20
317.777985
 30
0.0
 10
19.423200
 20
317.544985
 30
0.0
 10
18.819200
 20
317.267985
 30
0.0
 10
18.235200
 20
316.938985
 30
0.0
 10
17.679200
 20
316.569985
 30
0.0
 10
17.155200
 20
316.155985
 30
0.0
 10
16.665200
 20
315.702985
 30
0.0
 10
16.211200
 20
315.212985
 30
0.0
 10
15.797200
 20
314.687985
 30
0.0
 10
15.429200
 20
314.132985
 30
0.0
 10
15.100200
 20
313.548985
 30
0.0
 10
14.822200
 20
312.944985
 30
0.0
 10
14.590200
 20
312.317985
 30
0.0
 10
14.408200
 20
311.674985
 30
0.0
 10
14.278200
 20
311.019985
 30
0.0
 10
14.201200
 20
310.356985
 30
0.0
 10
14.176200
 20
309.687985
 30
0.0
 10
14.173200
 20
22.679992
 30
0.0
 10
14.201200
 20
22.010992
 30
0.0
 10
14.278200
 20
21.347992
 30
0.0
 10
14.408200
 20
20.692992
 30
0.0
 10
14.590200
 20
20.048992
 30
0.0
 10
14.822200
 20
19.422992
 30
0.0
 10
15.100200
 20
18.818992
 30
0.0
 10
15.429200
 20
18.234992
 30
0.0
 10
15.797200
 20
17.679992
 30
0.0
 10
16.211200
 20
17.154992
 30
0.0
 10
16.665200
 20
16.664992
 30
0.0
 10
17.155200
 20
16.210992
 30
0.0
 10
17.679200
 20
15.796992
 30
0.0
 10
18.235200
 20
15.428992
 30
0.0
 10
18.819200
 20
15.099992
 30
0.0
 10
19.423200
 20
14.821992
 30
0.0
 10
20.049199
 20
14.589992
 30
0.0
 10
20.693199
 20
14.408992
 30
0.0
 10
21.347199
 20
14.277992
 30
0.0
 10
22.011199
 20
14.201992
 30
0.0
 10
22.680199
 20
14.175992
 30
0.0
 10
417.688190
 20
14.172992
 30
0.0
 10
418.357190
 20
14.201992
 30
0.0
 10
419.020190
 20
14.277992
 30
0.0
 10
419.675190
 20
14.408992
 30
0.0
 10
420.318189
 20
14.589992
 30
0.0
 10
420.945189
 20
14.821992
 30
0.0
 10
421.548189
 20
15.099992
 30
0.0
 10
422.132189
 20
15.428992
 30
0.0
 10
422.688189
 20
15.796992
 30
0.0
 10
423.212189
 20
16.210992
 30
0.0
 10
423.703189
 20
16.664992
 30
0.0
 10
424.156189
 20
17.154992
 30
0.0
 10
424.570189
 20
17.679992
 30
0.0
 10
424.939189
 20
18.234992
 30
0.0
 10
425.267189
 20
18.818992
 30
0.0
 10
425.545189
 20
19.422992
 30
0.0
 10
425.778189
 20
20.048992
 30
0.0
 10
425.959189
 20
20.692992
 30
0.0
 10
426.090189
 20
21.347992
 30
0.0
 10
426.166189
 20
22.010992
 30
0.0
 10
426.194189
 20
22.679992
 30
0.0
 10
426.194189
 20
309.687985
 30
0.0
 10
426.166189
 20
310.356985
 30
0.0
  0
LWPOLYLINE
  5
110
100
AcDbEntity
  8
viterbi-middle
 62
5
100
AcDbPolyline
 90
20
 70
1
 10
421.472089
 20
25.426792
 30
0.0
 10
420.437089
 20
26.461792
 30
0.0
 10
419.133090
 20
27.127792
 30
0.0
 10
417.691090
 20
27.356792
 30
0.0
 10
416.245090
 20
27.127792
 30
0.0
 10
414.941090
 20
26.461792
 30
0.0
 10
413.906090
 20
25.426792
 30
0.0
 10
413.240090
 20
24.122792
 30
0.0
 10
413.013090
 20
22.679792
 30
0.0
 10
413.240090
 20
21.234792
 30
0.0
 10
413.906090
 20
19.930792
 30
0.0
 10
414.941090
 20
18.895792
 30
0.0
 10
416.245090
 20
18.229792
 30
0.0
 10
417.691090
 20
17.999792
 30
0.0
 10
419.133090
 20
18.229792
 30
0.0
 10
420.437089
 20
18.895792
 30
0.0
 10
421.472089
 20
19.930792
 30
0.0
 10
422.138089
 20
21.234792
 30
0.0
 10
422.368089
 20
22.679792
 30
0.0
 10
422.138089
 20
24.122792
 30
0.0
  0
LWPOLYLINE
  5
111
100
AcDbEntity
  8
viterbi-middle
 62
5
100
AcDbPolyline
 90
20
 70
1
 10
196.968195
 20
25.426792
 30
0.0
 10
195.933195
 20
26.461792
 30
0.0
 10
194.629195
 20
27.127792
 30
0.0
 10
193.184195
 20
27.356792
 30
0.0
 10
191.738195
 20
27.127792
 30
0.0
 10
190.434195
 20
26.461792
 30
0.0
 10
189.400195
 20
25.426792
 30
0.0
 10
188.736195
 20
24.122792
 30
0.0
 10
188.507195
 20
22.679792
 30
0.0
 10
188.736195
 20
21.234792
 30
0.0
 10
189.400195
 20
19.930792
 30
0.0
 10
190.434195
 20
18.895792
 30
0.0
 10
191.738195
 20
18.229792
 30
0.0
 10
193.184195
 20
17.999792
 30
0.0
 10
194.629195
 20
18.229792
 30
0.0
 10
195.933195
 20
18.895792
 30
0.0
 10
196.968195
 20
19.930792
 30
0.0
 10
197.631195
 20
21.234792
 30
0.0
 10
197.861195
 20
22.679792
 30
0.0
 10
197.631195
 20
24.122792
 30
0.0
  0
LWPOLYLINE
  5
112
100
AcDbEntity
  8
viterbi-middle
 62
5
100
AcDbPolyline
 90
20
 70
1
 10
26.461399
 20
25.426792
 30
0.0
 10
25.426399
 20
26.461792
 30
0.0
 10
24.122399
 20
27.127792
 30
0.0
 10
22.680399
 20
27.356792
 30
0.0
 10
21.234399
 20
27.127792
 30
0.0
 10
19.930400
 20
26.461792
 30
0.0
 10
18.895400
 20
25.426792
 30
0.0
 10
18.229400
 20
24.122792
 30
0.0
 10
18.000400
 20
22.679792
 30
0.0
 10
18.229400
 20
21.234792
 30
0.0
 10
18.895400
 20
19.930792
 30
0.0
 10
19.930400
 20
18.895792
 30
0.0
 10
21.234399
 20
18.229792
 30
0.0
 10
22.677399
 20
17.999792
 30
0.0
 10
24.122399
 20
18.229792
 30
0.0
 10
25.426399
 20
18.895792
 30
0.0
 10
26.461399
 20
19.930792
 30
0.0
 10
27.127399
 20
21.234792
 30
0.0
 10
27.357399
 20
22.679792
 30
0.0
 10
27.127399
 20
24.122792
 30
0.0
  0
LWPOLYLINE
  5
113
100
AcDbEntity
  8
viterbi-middle
 62
5
100
AcDbPolyline
 90
20
 70
1
 10
421.472089
 20
168.933488
 30
0.0
 10
420.437089
 20
169.968488
 30
0.0
 10
419.133090
 20
170.631488
 30
0.0
 10
417.691090
 20
170.861488
 30
0.0
 10
416.245090
 20
170.631488
 30
0.0
 10
414.941090
 20
169.968488
 30
0.0
 10
413.906090
 20
168.933488
 30
0.0
 10
413.240090
 20
167.629488
 30
0.0
 10
413.013090
 20
166.183488
 30
0.0
 10
413.240090
 20
164.738488
 30
0.0
 10
413.906090
 20
163.434488
 30
0.0
 10
414.941090
 20
162.399488
 30
0.0
 10
416.245090
 20
161.736488
 30
0.0
 10
417.691090
 20
161.506488
 30
0.0
 10
419.133090
 20
161.736488
 30
0.0
 10
420.437089
 20
162.399488
 30
0.0
 10
421.472089
 20
163.434488
 30
0.0
 10
422.138089
 20
164.738488
 30
0.0
 10
422.368089
 20
166.183488
 30
0.0
 10
422.138089
 20
167.629488
 30
0.0
  0
LWPOLYLINE
  5
114
100
AcDbEntity
  8
viterbi-middle
 62
5
100
AcDbPolyline
 90
20
 70
1
 10
26.461399
 20
168.933488
 30
0.0
 10
25.426399
 20
169.968488
 30
0.0
 10
24.122399
 20
170.631488
 30
0.0
 10
22.680399
 20
170.861488
 30
0.0
 10
21.234399
 20
170.631488
 30
0.0
 10
19.930400
 20
169.968488
 30
0.0
 10
18.895400
 20
168.933488
 30
0.0
 10
18.229400
 20
167.629488
 30
0.0
 10
18.000400
 20
166.183488
 30
0.0
 10
18.229400
 20
164.738488
 30
0.0
 10
18.895400
 20
163.434488
 30
0.0
 10
19.930400
 20
162.399488
 30
0.0
 10
21.234399
 20
161.736488
 30
0.0
 10
22.677399
 20
161.506488
 30
0.0
 10
24.122399
 20
161.736488
 30
0.0
 10
25.426399
 20
162.399488
 30
0.0
 10
26.461399
 20
163.434488
 30
0.0
 10
27.127399
 20
164.738488
 30
0.0
 10
27.357399
 20
166.183488
 30
0.0
 10
27.127399
 20
167.629488
 30
0.0
  0
LWPOLYLINE
  5
115
100
AcDbEntity
  8
viterbi-middle
 62
5
100
AcDbPolyline
 90
20
 70
1
 10
421.472089
 20
312.437385
 30
0.0
 10
420.437089
 20
313.472385
 30
0.0
 10
419.133090
 20
314.138385
 30
0.0
 10
417.691090
 20
314.365385
 30
0.0
 10
416.245090
 20
314.138385
 30
0.0
 10
414.941090
 20
313.472385
 30
0.0
 10
413.906090
 20
312.437385
 30
0.0
 10
413.240090
 20
311.133385
 30
0.0
 10
413.013090
 20
309.690385
 30
0.0
 10
413.240090
 20
308.245385
 30
0.0
 10
413.906090
 20
306.941385
 30
0.0
 10
414.941090
 20
305.906385
 30
0.0
 10
416.245090
 20
305.240385
 30
0.0
 10
417.691090
 20
305.010385
 30
0.0
 10
419.133090
 20
305.240385
 30
0.0
 10
420.437089
 20
305.906385
 30
0.0
 10
421.472089
 20
306.941385
 30
0.0
 10
422.138089
 20
308.245385
 30
0.0
 10
422.368089
 20
309.687385
 30
0.0
 10
422.138089
 20
311.133385
 30
0.0
  0
LWPOLYLINE
  5
116
100
AcDbEntity
  8
viterbi-middle
 62
5
100
AcDbPolyline
 90
20
 70
1
 10
26.461399
 20
312.437385
 30
0.0
 10
25.426399
 20
313.472385
 30
0.0
 10
24.122399
 20
314.138385
 30
0.0
 10
22.680399
 20
314.365385
 30
0.0
 10
21.234399
 20
314.138385
 30
0.0
 10
19.930400
 20
313.472385
 30
0.0
 10
18.895400
 20
312.437385
 30
0.0
 10
18.229400
 20
311.133385
 30
0.0
 10
18.000400
 20
309.690385
 30
0.0
 10
18.229400
 20
308.245385
 30
0.0
 10
18.895400
 20
306.941385
 30
0.0
 10
19.930400
 20
305.906385
 30
0.0
 10
21.234399
 20
305.240385
 30
0.0
 10
22.677399
 20
305.010385
 30
0.0
 10
24.122399
 20
305.240385
 30
0.0
 10
25.426399
 20
305.906385
 30
0.0
 10
26.461399
 20
306.941385
 30
0.0
 10
27.127399
 20
308.245385
 30
0.0
 10
27.357399
 20
309.687385
 30
0.0
 10
27.127399
 20
311.133385
 30
0.0
  0
ENDSEC
  0
SECTION
  2
OBJECTS
  0
DICTIONARY
  5
C
330
0
100
AcDbDictionary
  3
ACAD_GROUP
350
D
  3
ACAD_MLINESTYLE
350
17
  0
DICTIONARY
  5
D
330
C
100
AcDbDictionary
  0
DICTIONARY
  5
1A
330
C
100
AcDbDictionary
  0
DICTIONARY
  5
17
330
C
100
AcDbDictionary
  3
STANDARD
350
18
  0
DICTIONARY
  5
19
330
C
100
AcDbDictionary
  0
ENDSEC
  0
EOF
